<svg version="1.1" viewBox="0.0 0.0 553.3884514435696 226.01574803149606" fill="none" stroke="none" stroke-linecap="square" stroke-miterlimit="10" xmlns:xlink="http://www.w3.org/1999/xlink" xmlns="http://www.w3.org/2000/svg"><clipPath id="p.0"><path d="m0 0l553.3884 0l0 226.01575l-553.3884 0l0 -226.01575z" clip-rule="nonzero"/></clipPath><g clip-path="url(#p.0)"><path fill="#000000" fill-opacity="0.0" d="m0 0l553.3884 0l0 226.01575l-553.3884 0z" fill-rule="evenodd"/><path fill="#fff2cc" d="m3.4776902 4.3727036l541.2284 0l0 212.44095l-541.2284 0z" fill-rule="evenodd"/><path stroke="#000000" stroke-width="1.0" stroke-linejoin="round" stroke-linecap="butt" d="m3.4776902 4.3727036l541.2284 0l0 212.44095l-541.2284 0z" fill-rule="evenodd"/><path fill="#000000" d="m205.82234 203.9524q-1.265625 0 -2.3125 -0.53125q-1.03125 -0.53125 -1.78125 -1.625l1.0625 -0.8125q0.546875 0.828125 1.34375 1.296875q0.796875 0.453125 1.8125 0.453125q0.5625 0 1.046875 -0.171875q0.484375 -0.171875 0.828125 -0.46875q0.34375 -0.296875 0.546875 -0.71875q0.21875 -0.4375 0.21875 -0.96875q0 -0.671875 -0.421875 -1.125q-0.421875 -0.453125 -1.109375 -0.875l-1.421875 -0.859375q-0.78125 -0.484375 -1.34375 -1.15625q-0.546875 -0.671875 -0.546875 -1.71875q0 -0.6875 0.28125 -1.296875q0.296875 -0.625 0.796875 -1.09375q0.515625 -0.46875 1.203125 -0.734375q0.703125 -0.28125 1.53125 -0.28125q1.09375 0 1.984375 0.484375q0.90625 0.484375 1.484375 1.234375l-0.953125 0.859375q-0.484375 -0.5625 -1.125 -0.9375q-0.640625 -0.390625 -1.5 -0.390625q-0.53125 0 -0.9375 0.171875q-0.40625 0.171875 -0.703125 0.453125q-0.28125 0.28125 -0.4375 0.640625q-0.140625 0.34375 -0.140625 0.71875q0 0.703125 0.453125 1.140625q0.453125 0.4375 1.125 0.859375l1.421875 0.828125q0.890625 0.53125 1.359375 1.203125q0.484375 0.65625 0.484375 1.671875q0 0.828125 -0.328125 1.515625q-0.3125 0.6875 -0.875 1.1875q-0.546875 0.5 -1.328125 0.78125q-0.78125 0.265625 -1.71875 0.265625zm9.158813 0q-1.5 0 -2.421875 -0.9375q-0.921875 -0.9375 -0.921875 -2.703125q0 -1.265625 0.421875 -2.328125q0.421875 -1.078125 1.109375 -1.859375q0.703125 -0.78125 1.609375 -1.234375q0.921875 -0.453125 1.921875 -0.453125q0.8125 0 1.375 0.328125q0.5625 0.3125 0.96875 0.78125l-0.84375 0.890625q-0.34375 -0.421875 -0.703125 -0.609375q-0.359375 -0.203125 -0.890625 -0.203125q-0.671875 0 -1.3125 0.375q-0.625 0.359375 -1.125 0.984375q-0.5 0.625 -0.796875 1.46875q-0.28125 0.84375 -0.28125 1.78125q0 1.21875 0.53125 1.875q0.53125 0.65625 1.625 0.65625q0.59375 0 1.078125 -0.234375q0.5 -0.25 0.9375 -0.5625l0.625 0.921875q-0.484375 0.375 -1.203125 0.71875q-0.703125 0.34375 -1.703125 0.34375zm4.4917145 -3.78125q0 -1.28125 0.421875 -2.328125q0.4375 -1.0625 1.109375 -1.8125q0.6875 -0.765625 1.546875 -1.171875q0.875 -0.421875 1.78125 -0.421875q0.765625 0 1.296875 0.265625q0.53125 0.25 0.859375 0.6875q0.34375 0.4375 0.484375 1.046875q0.15625 0.59375 0.15625 1.296875q0 0.53125 -0.125 1.015625q-0.109375 0.484375 -0.203125 0.75l-5.890625 0q-0.125 0.875 0.015625 1.5q0.15625 0.625 0.5 1.046875q0.34375 0.40625 0.84375 0.59375q0.515625 0.171875 1.109375 0.171875q0.53125 0 1.0625 -0.21875q0.53125 -0.234375 0.96875 -0.5625l0.5625 0.953125q-0.546875 0.390625 -1.296875 0.6875q-0.734375 0.28125 -1.640625 0.28125q-1.625 0 -2.59375 -0.96875q-0.96875 -0.984375 -0.96875 -2.8125zm1.59375 -1.640625l4.75 0q0.046875 -0.21875 0.0625 -0.4375q0.03125 -0.234375 0.03125 -0.5q0 -0.390625 -0.09375 -0.75q-0.09375 -0.359375 -0.296875 -0.640625q-0.203125 -0.28125 -0.546875 -0.453125q-0.328125 -0.171875 -0.8125 -0.171875q-0.5 0 -0.984375 0.203125q-0.46875 0.203125 -0.890625 0.609375q-0.40625 0.390625 -0.734375 0.9375q-0.328125 0.53125 -0.484375 1.203125zm7.2705383 5.203125l1.796875 -9.0625l1.171875 0l-0.125 1.359375l0.0625 0q0.78125 -0.671875 1.546875 -1.125q0.765625 -0.46875 1.625 -0.46875q1.15625 0 1.65625 0.609375q0.5 0.59375 0.5 1.65625q0 0.3125 -0.03125 0.59375q-0.03125 0.28125 -0.125 0.65625l-1.15625 5.78125l-1.421875 0l1.125 -5.59375q0.078125 -0.375 0.109375 -0.59375q0.03125 -0.234375 0.03125 -0.46875q0 -0.6875 -0.3125 -1.046875q-0.3125 -0.359375 -1.03125 -0.359375q-0.53125 0 -1.203125 0.390625q-0.65625 0.390625 -1.515625 1.25l-1.28125 6.421875l-1.421875 0zm12.560165 0.21875q-1.203125 0 -1.90625 -0.828125q-0.703125 -0.84375 -0.703125 -2.453125q0 -1.296875 0.40625 -2.4375q0.40625 -1.140625 1.09375 -1.984375q0.6875 -0.84375 1.5625 -1.328125q0.890625 -0.484375 1.84375 -0.484375q0.71875 0 1.28125 0.375q0.578125 0.375 0.890625 1.0l0.078125 0l0.359375 -1.140625l1.15625 0l-1.8125 9.0625l-1.171875 0l0.140625 -1.34375l-0.0625 0q-0.65625 0.703125 -1.484375 1.140625q-0.8125 0.421875 -1.671875 0.421875zm0.515625 -1.1875q0.71875 0 1.453125 -0.421875q0.734375 -0.421875 1.40625 -1.3125l0.8125 -4.046875q-0.390625 -0.71875 -0.859375 -1.03125q-0.453125 -0.3125 -0.984375 -0.3125q-0.671875 0 -1.3125 0.40625q-0.625 0.390625 -1.109375 1.0625q-0.484375 0.671875 -0.78125 1.546875q-0.28125 0.859375 -0.28125 1.796875q0 1.171875 0.4375 1.75q0.453125 0.5625 1.21875 0.5625zm6.737152 0.96875l1.796875 -9.0625l1.171875 0l-0.203125 1.734375l0.078125 0q0.53125 -0.84375 1.25 -1.40625q0.71875 -0.5625 1.5625 -0.5625q0.46875 0 0.859375 0.171875l-0.515625 1.265625q-0.296875 -0.140625 -0.78125 -0.140625q-0.671875 0 -1.375 0.578125q-0.703125 0.578125 -1.28125 1.6875l-1.140625 5.734375l-1.421875 0zm6.380432 0l1.8124847 -9.0625l1.4375 0l-1.8281097 9.0625l-1.421875 0zm3.0156097 -10.953125q-0.359375 0 -0.640625 -0.203125q-0.265625 -0.21875 -0.265625 -0.640625q0 -0.453125 0.328125 -0.765625q0.328125 -0.3125 0.75 -0.3125q0.375 0 0.640625 0.234375q0.28125 0.21875 0.28125 0.625q0 0.46875 -0.328125 0.765625q-0.328125 0.296875 -0.765625 0.296875zm4.7809143 11.171875q-1.46875 0 -2.34375 -0.96875q-0.875 -0.96875 -0.875 -2.671875q0 -1.28125 0.40625 -2.359375q0.40625 -1.078125 1.09375 -1.84375q0.6875 -0.78125 1.5625 -1.21875q0.890625 -0.453125 1.8125 -0.453125q1.484375 0 2.359375 0.984375q0.890625 0.96875 0.890625 2.65625q0 1.296875 -0.421875 2.375q-0.421875 1.078125 -1.109375 1.859375q-0.671875 0.765625 -1.5625 1.203125q-0.875 0.4375 -1.8125 0.4375zm0.15625 -1.1875q0.625 0 1.203125 -0.359375q0.59375 -0.375 1.0625 -0.984375q0.46875 -0.609375 0.75 -1.453125q0.28125 -0.84375 0.28125 -1.796875q0 -1.234375 -0.5 -1.890625q-0.484375 -0.65625 -1.4375 -0.65625q-0.625 0 -1.21875 0.359375q-0.59375 0.359375 -1.0625 0.984375q-0.46875 0.625 -0.75 1.46875q-0.265625 0.84375 -0.265625 1.796875q0 1.21875 0.484375 1.875q0.5 0.65625 1.453125 0.65625zm13.393127 1.1875q-1.265625 0 -2.3125 -0.53125q-1.03125 -0.53125 -1.78125 -1.625l1.0625 -0.8125q0.546875 0.828125 1.34375 1.296875q0.796875 0.453125 1.8125 0.453125q0.5625 0 1.046875 -0.171875q0.484375 -0.171875 0.828125 -0.46875q0.34375 -0.296875 0.546875 -0.71875q0.21875 -0.4375 0.21875 -0.96875q0 -0.671875 -0.421875 -1.125q-0.421875 -0.453125 -1.109375 -0.875l-1.421875 -0.859375q-0.78125 -0.484375 -1.34375 -1.15625q-0.546875 -0.671875 -0.546875 -1.71875q0 -0.6875 0.28125 -1.296875q0.296875 -0.625 0.796875 -1.09375q0.515625 -0.46875 1.203125 -0.734375q0.703125 -0.28125 1.53125 -0.28125q1.09375 0 1.984375 0.484375q0.90625 0.484375 1.484375 1.234375l-0.953125 0.859375q-0.484375 -0.5625 -1.125 -0.9375q-0.640625 -0.390625 -1.5 -0.390625q-0.53125 0 -0.9375 0.171875q-0.40625 0.171875 -0.703125 0.453125q-0.28125 0.28125 -0.4375 0.640625q-0.140625 0.34375 -0.140625 0.71875q0 0.703125 0.453125 1.140625q0.453125 0.4375 1.125 0.859375l1.421875 0.828125q0.890625 0.53125 1.359375 1.203125q0.484375 0.65625 0.484375 1.671875q0 0.828125 -0.328125 1.515625q-0.3125 0.6875 -0.875 1.1875q-0.546875 0.5 -1.328125 0.78125q-0.78125 0.265625 -1.71875 0.265625zm5.7056885 -0.21875l1.8125 -9.0625l1.4375 0l-1.828125 9.0625l-1.421875 0zm3.015625 -10.953125q-0.359375 0 -0.640625 -0.203125q-0.265625 -0.21875 -0.265625 -0.640625q0 -0.453125 0.328125 -0.765625q0.328125 -0.3125 0.75 -0.3125q0.375 0 0.640625 0.234375q0.28125 0.21875 0.28125 0.625q0 0.46875 -0.328125 0.765625q-0.328125 0.296875 -0.765625 0.296875zm1.4058838 10.953125l1.796875 -9.0625l1.171875 0l-0.125 1.359375l0.0625 0q0.71875 -0.671875 1.5 -1.125q0.78125 -0.46875 1.484375 -0.46875q0.546875 0 0.921875 0.140625q0.375 0.140625 0.609375 0.375q0.25 0.234375 0.375 0.5625q0.125 0.328125 0.1875 0.703125q0.875 -0.84375 1.6875 -1.3125q0.8125 -0.46875 1.515625 -0.46875q1.140625 0 1.640625 0.609375q0.515625 0.59375 0.515625 1.65625q0 0.3125 -0.046875 0.59375q-0.03125 0.28125 -0.109375 0.65625l-1.15625 5.78125l-1.4375 0l1.140625 -5.59375q0.078125 -0.375 0.109375 -0.59375q0.046875 -0.234375 0.046875 -0.46875q0 -1.40625 -1.328125 -1.40625q-0.390625 0 -1.0625 0.390625q-0.671875 0.390625 -1.5 1.25l-1.28125 6.421875l-1.421875 0l1.125 -5.59375q0.078125 -0.375 0.109375 -0.59375q0.03125 -0.234375 0.03125 -0.46875q0 -1.40625 -1.296875 -1.40625q-0.421875 0 -1.09375 0.390625q-0.671875 0.390625 -1.46875 1.25l-1.28125 6.421875l-1.421875 0zm23.562622 -9.0625l-1.8125 9.0625l-1.171875 0l0.15625 -1.375l-0.078125 0q-0.75 0.640625 -1.53125 1.125q-0.765625 0.46875 -1.609375 0.46875q-1.15625 0 -1.65625 -0.59375q-0.484375 -0.609375 -0.484375 -1.65625q0 -0.3125 0.015625 -0.59375q0.03125 -0.28125 0.125 -0.65625l1.15625 -5.78125l1.4375 0l-1.125 5.59375q-0.078125 0.375 -0.125 0.59375q-0.03125 0.21875 -0.03125 0.46875q0 0.6875 0.3125 1.046875q0.328125 0.359375 1.03125 0.359375q0.546875 0 1.1875 -0.390625q0.65625 -0.40625 1.5 -1.265625l1.28125 -6.40625l1.421875 0zm2.6473694 9.28125q-0.59375 0 -0.90625 -0.296875q-0.296875 -0.3125 -0.296875 -0.875q0 -0.296875 0.109375 -0.78125l2.296875 -11.546875l1.4375 0l-2.34375 11.625q-0.03125 0.140625 -0.03125 0.21875q0 0.078125 0 0.125q0 0.34375 0.3125 0.34375q0.0625 0 0.109375 0q0.0625 -0.015625 0.1875 -0.0625l0.015625 1.109375q-0.171875 0.078125 -0.390625 0.109375q-0.203125 0.03125 -0.5 0.03125zm5.9392395 0q-1.203125 0 -1.90625 -0.828125q-0.703125 -0.84375 -0.703125 -2.453125q0 -1.296875 0.40625 -2.4375q0.40625 -1.140625 1.09375 -1.984375q0.6875 -0.84375 1.5625 -1.328125q0.890625 -0.484375 1.84375 -0.484375q0.71875 0 1.28125 0.375q0.578125 0.375 0.890625 1.0l0.078125 0l0.359375 -1.140625l1.15625 0l-1.8125 9.0625l-1.171875 0l0.140625 -1.34375l-0.0625 0q-0.65625 0.703125 -1.484375 1.140625q-0.8125 0.421875 -1.671875 0.421875zm0.515625 -1.1875q0.71875 0 1.453125 -0.421875q0.734375 -0.421875 1.40625 -1.3125l0.8125 -4.046875q-0.390625 -0.71875 -0.859375 -1.03125q-0.453125 -0.3125 -0.984375 -0.3125q-0.671875 0 -1.3125 0.40625q-0.625 0.390625 -1.109375 1.0625q-0.484375 0.671875 -0.78125 1.546875q-0.28125 0.859375 -0.28125 1.796875q0 1.171875 0.4375 1.75q0.453125 0.5625 1.21875 0.5625zm9.612183 1.1875q-0.59375 0 -1.015625 -0.15625q-0.40625 -0.15625 -0.671875 -0.421875q-0.25 -0.28125 -0.375 -0.640625q-0.109375 -0.359375 -0.109375 -0.796875q0 -0.28125 0.03125 -0.5q0.03125 -0.234375 0.0625 -0.5l1.0625 -5.109375l-1.3125 0l0.203125 -1.0625l1.421875 -0.09375l0.671875 -2.5l1.203125 0l-0.5 2.5l2.296875 0l-0.234375 1.15625l-2.328125 0l-1.0625 5.1875q-0.046875 0.328125 -0.046875 0.671875q0 0.546875 0.25 0.828125q0.25 0.28125 0.90625 0.28125q0.25 0 0.484375 -0.09375q0.25 -0.09375 0.453125 -0.1875l0.328125 1.03125q-0.328125 0.15625 -0.75 0.28125q-0.421875 0.125 -0.96875 0.125zm6.35791 0q-1.46875 0 -2.34375 -0.96875q-0.875 -0.96875 -0.875 -2.671875q0 -1.28125 0.40625 -2.359375q0.40625 -1.078125 1.09375 -1.84375q0.6875 -0.78125 1.5625 -1.21875q0.890625 -0.453125 1.8125 -0.453125q1.484375 0 2.359375 0.984375q0.890625 0.96875 0.890625 2.65625q0 1.296875 -0.421875 2.375q-0.421875 1.078125 -1.109375 1.859375q-0.671875 0.765625 -1.5625 1.203125q-0.875 0.4375 -1.8125 0.4375zm0.15625 -1.1875q0.625 0 1.203125 -0.359375q0.59375 -0.375 1.0625 -0.984375q0.46875 -0.609375 0.75 -1.453125q0.28125 -0.84375 0.28125 -1.796875q0 -1.234375 -0.5 -1.890625q-0.484375 -0.65625 -1.4375 -0.65625q-0.625 0 -1.21875 0.359375q-0.59375 0.359375 -1.0625 0.984375q-0.46875 0.625 -0.75 1.46875q-0.265625 0.84375 -0.265625 1.796875q0 1.21875 0.484375 1.875q0.5 0.65625 1.453125 0.65625zm6.076721 0.96875l1.796875 -9.0625l1.171875 0l-0.203125 1.734375l0.078125 0q0.53125 -0.84375 1.25 -1.40625q0.71875 -0.5625 1.5625 -0.5625q0.46875 0 0.859375 0.171875l-0.515625 1.265625q-0.296875 -0.140625 -0.78125 -0.140625q-0.671875 0 -1.375 0.578125q-0.703125 0.578125 -1.28125 1.6875l-1.140625 5.734375l-1.421875 0z" fill-rule="nonzero"/><path fill="#c9daf8" d="m22.606298 26.194225l156.31497 0l0 73.16536l-156.31497 0z" fill-rule="evenodd"/><path stroke="#000000" stroke-width="1.0" stroke-linejoin="round" stroke-linecap="butt" d="m22.606298 26.194225l156.31497 0l0 73.16536l-156.31497 0z" fill-rule="evenodd"/><path fill="#000000" d="m44.779007 69.69691l0 -12.234379l3.0625 0q2.84375 0 4.3125 1.5625q1.46875 1.5625 1.46875 4.5q0 1.4531288 -0.375 2.6093788q-0.359375 1.140625 -1.09375 1.9375q-0.71875 0.78125 -1.796875 1.203125q-1.0625 0.421875 -2.4375 0.421875l-3.140625 0zm1.5625 -1.265625l1.390625 0q2.140625 0 3.21875 -1.28125q1.078125 -1.296875 1.078125 -3.6250038q0 -2.328125 -1.078125 -3.5625q-1.078125 -1.234375 -3.21875 -1.234375l-1.390625 0l0 9.703129zm11.864227 1.484375q-1.140625 0 -1.90625 -0.671875q-0.75 -0.671875 -0.75 -1.890625q0 -1.5 1.328125 -2.28125q1.328125 -0.796875 4.234375 -1.1250038q0 -0.421875 -0.09375 -0.828125q-0.078125 -0.421875 -0.28125 -0.734375q-0.203125 -0.3125 -0.578125 -0.5q-0.359375 -0.203125 -0.90625 -0.203125q-0.796875 0 -1.484375 0.296875q-0.6875 0.296875 -1.234375 0.671875l-0.59375 -1.0625q0.640625 -0.421875 1.546875 -0.796875q0.921875 -0.390625 2.015625 -0.390625q1.65625 0 2.40625 1.03125q0.75 1.015625 0.75 2.7031288l0 5.5625l-1.265625 0l-0.140625 -1.078125l-0.046875 0q-0.65625 0.53125 -1.40625 0.921875q-0.734375 0.375 -1.59375 0.375zm0.4375 -1.21875q0.65625 0 1.234375 -0.3125q0.578125 -0.3125 1.234375 -0.90625l0 -2.515625q-1.140625 0.140625 -1.921875 0.359375q-0.765625 0.203125 -1.25 0.484375q-0.46875 0.265625 -0.6875 0.640625q-0.203125 0.359375 -0.203125 0.78125q0 0.796875 0.453125 1.140625q0.46875 0.328125 1.140625 0.328125zm9.469543 1.21875q-0.734375 0 -1.234375 -0.21875q-0.484375 -0.21875 -0.796875 -0.609375q-0.3125 -0.390625 -0.4375 -0.953125q-0.125 -0.5625 -0.125 -1.234375l0 -5.015629l-1.34375 0l0 -1.15625l1.40625 -0.09375l0.1875 -2.546875l1.296875 0l0 2.546875l2.4375 0l0 1.25l-2.4375 0l0 5.031254q0 0.84375 0.296875 1.296875q0.3125 0.453125 1.09375 0.453125q0.25 0 0.53125 -0.0625q0.28125 -0.078125 0.5 -0.171875l0.296875 1.15625q-0.375 0.125 -0.8125 0.21875q-0.4375 0.109375 -0.859375 0.109375zm5.1481934 0q-1.140625 0 -1.90625 -0.671875q-0.75 -0.671875 -0.75 -1.890625q0 -1.5 1.328125 -2.28125q1.328125 -0.796875 4.234375 -1.1250038q0 -0.421875 -0.09375 -0.828125q-0.078125 -0.421875 -0.28125 -0.734375q-0.203125 -0.3125 -0.578125 -0.5q-0.359375 -0.203125 -0.90625 -0.203125q-0.796875 0 -1.484375 0.296875q-0.6875 0.296875 -1.234375 0.671875l-0.59375 -1.0625q0.640625 -0.421875 1.546875 -0.796875q0.921875 -0.390625 2.015625 -0.390625q1.65625 0 2.40625 1.03125q0.75 1.015625 0.75 2.7031288l0 5.5625l-1.265625 0l-0.140625 -1.078125l-0.046875 0q-0.65625 0.53125 -1.40625 0.921875q-0.734375 0.375 -1.59375 0.375zm0.4375 -1.21875q0.65625 0 1.234375 -0.3125q0.578125 -0.3125 1.234375 -0.90625l0 -2.515625q-1.140625 0.140625 -1.921875 0.359375q-0.765625 0.203125 -1.25 0.484375q-0.46875 0.265625 -0.6875 0.640625q-0.203125 0.359375 -0.203125 0.78125q0 0.796875 0.453125 1.140625q0.46875 0.328125 1.140625 0.328125zm13.665253 5.171875q-0.84375 0 -1.53125 -0.15625q-0.6875 -0.15625 -1.1875 -0.46875q-0.5 -0.3125 -0.765625 -0.765625q-0.265625 -0.453125 -0.265625 -1.046875q0 -0.578125 0.34375 -1.109375q0.359375 -0.515625 0.984375 -0.9375l0 -0.078125q-0.34375 -0.203125 -0.578125 -0.5625q-0.234375 -0.375 -0.234375 -0.90625q0 -0.578125 0.3125 -1.0q0.328125 -0.4375 0.671875 -0.6875l0 -0.078125q-0.4375 -0.375 -0.8125 -1.0q-0.359375 -0.625 -0.359375 -1.4375038q0 -0.75 0.265625 -1.34375q0.28125 -0.59375 0.75 -1.015625q0.46875 -0.421875 1.09375 -0.640625q0.625 -0.234375 1.3125 -0.234375q0.375 0 0.6875 0.078125q0.328125 0.0625 0.59375 0.15625l3.15625 0l0 1.171875l-1.875 0q0.328125 0.3125 0.53125 0.796875q0.21875 0.484375 0.21875 1.0625q0 0.7343788 -0.265625 1.3281288q-0.25 0.578125 -0.703125 0.984375q-0.4375 0.390625 -1.046875 0.625q-0.609375 0.21875 -1.296875 0.21875q-0.34375 0 -0.703125 -0.078125q-0.34375 -0.09375 -0.65625 -0.234375q-0.25 0.203125 -0.421875 0.453125q-0.15625 0.25 -0.15625 0.625q0 0.4375 0.328125 0.71875q0.34375 0.265625 1.265625 0.265625l1.75 0q1.59375 0 2.375 0.515625q0.796875 0.515625 0.796875 1.65625q0 0.625 -0.3125 1.1875q-0.3125 0.578125 -0.921875 1.0q-0.59375 0.4375 -1.4375 0.6875q-0.84375 0.25 -1.90625 0.25zm0 -8.078125q0.390625 0 0.734375 -0.140625q0.34375 -0.15625 0.609375 -0.421875q0.28125 -0.28125 0.421875 -0.6875q0.15625 -0.40625 0.15625 -0.9062538q0 -1.015625 -0.5625 -1.5625q-0.5625 -0.546875 -1.359375 -0.546875q-0.8125 0 -1.375 0.546875q-0.546875 0.546875 -0.546875 1.5625q0 0.5000038 0.140625 0.9062538q0.15625 0.40625 0.421875 0.6875q0.265625 0.265625 0.609375 0.421875q0.359375 0.140625 0.75 0.140625zm0.21875 7.015625q0.65625 0 1.1875 -0.15625q0.53125 -0.15625 0.90625 -0.40625q0.375 -0.25 0.578125 -0.59375q0.203125 -0.328125 0.203125 -0.6875q0 -0.625 -0.46875 -0.875q-0.46875 -0.234375 -1.359375 -0.234375l-1.5625 0q-0.265625 0 -0.578125 -0.03125q-0.296875 -0.03125 -0.609375 -0.125q-0.484375 0.359375 -0.703125 0.75q-0.21875 0.390625 -0.21875 0.78125q0 0.71875 0.6875 1.140625q0.703125 0.4375 1.9375 0.4375zm9.532043 -2.890625q-0.90625 0 -1.703125 -0.3125q-0.796875 -0.328125 -1.390625 -0.9375q-0.578125 -0.609375 -0.921875 -1.484375q-0.328125 -0.875 -0.328125 -2.0q0 -1.125 0.34375 -2.0000038q0.34375 -0.890625 0.90625 -1.5q0.578125 -0.625 1.296875 -0.953125q0.734375 -0.328125 1.515625 -0.328125q0.859375 0 1.53125 0.3125q0.6875 0.296875 1.140625 0.859375q0.46875 0.546875 0.703125 1.34375q0.25 0.78125 0.25 1.7500038q0 0.234375 -0.015625 0.46875q0 0.234375 -0.046875 0.40625l-6.109375 0q0.09375 1.453125 0.890625 2.3125q0.8125 0.84375 2.125 0.84375q0.65625 0 1.203125 -0.203125q0.546875 -0.203125 1.0625 -0.515625l0.53125 1.015625q-0.59375 0.375 -1.328125 0.65625q-0.71875 0.265625 -1.65625 0.265625zm-2.859375 -5.484375l4.859375 0q0 -1.3750038 -0.59375 -2.0937538q-0.578125 -0.71875 -1.640625 -0.71875q-0.484375 0 -0.9375 0.1875q-0.4375 0.1875 -0.796875 0.546875q-0.34375 0.359375 -0.578125 0.890625q-0.234375 0.515625 -0.3125 1.1875038zm8.4410095 5.265625l0 -9.062504l1.265625 0l0.125 1.296875l0.0625 0q0.65625 -0.640625 1.375 -1.078125q0.71875 -0.453125 1.671875 -0.453125q1.4375 0 2.09375 0.90625q0.65625 0.890625 0.65625 2.640625l0 5.750004l-1.53125 0l0 -5.546875q0 -1.2812538 -0.40625 -1.8437538q-0.40625 -0.578125 -1.296875 -0.578125q-0.71875 0 -1.265625 0.359375q-0.53125 0.359375 -1.21875 1.046875l0 6.562504l-1.53125 0zm13.876846 0.21875q-0.90625 0 -1.703125 -0.3125q-0.796875 -0.328125 -1.390625 -0.9375q-0.578125 -0.609375 -0.921875 -1.484375q-0.328125 -0.875 -0.328125 -2.0q0 -1.125 0.34375 -2.0000038q0.34375 -0.890625 0.90625 -1.5q0.578125 -0.625 1.296875 -0.953125q0.734375 -0.328125 1.515625 -0.328125q0.859375 0 1.53125 0.3125q0.6875 0.296875 1.140625 0.859375q0.46875 0.546875 0.703125 1.34375q0.25 0.78125 0.25 1.7500038q0 0.234375 -0.015625 0.46875q0 0.234375 -0.046875 0.40625l-6.109375 0q0.09375 1.453125 0.890625 2.3125q0.8125 0.84375 2.125 0.84375q0.65625 0 1.203125 -0.203125q0.546875 -0.203125 1.0625 -0.515625l0.53125 1.015625q-0.59375 0.375 -1.328125 0.65625q-0.71875 0.265625 -1.65625 0.265625zm-2.859375 -5.484375l4.859375 0q0 -1.3750038 -0.59375 -2.0937538q-0.578125 -0.71875 -1.640625 -0.71875q-0.484375 0 -0.9375 0.1875q-0.4375 0.1875 -0.796875 0.546875q-0.34375 0.359375 -0.578125 0.890625q-0.234375 0.515625 -0.3125 1.1875038zm8.4410095 5.265625l0 -9.062504l1.265625 0l0.125 1.640625l0.0625 0q0.46875 -0.859375 1.125 -1.359375q0.671875 -0.515625 1.453125 -0.515625q0.53125 0 0.96875 0.1875l-0.296875 1.34375q-0.234375 -0.0625 -0.421875 -0.09375q-0.171875 -0.046875 -0.453125 -0.046875q-0.578125 0 -1.203125 0.46875q-0.625 0.453125 -1.09375 1.609375l0 5.828129l-1.53125 0zm8.119476 0.21875q-1.140625 0 -1.90625 -0.671875q-0.75 -0.671875 -0.75 -1.890625q0 -1.5 1.328125 -2.28125q1.328125 -0.796875 4.234375 -1.1250038q0 -0.421875 -0.09375 -0.828125q-0.078125 -0.421875 -0.28125 -0.734375q-0.203125 -0.3125 -0.578125 -0.5q-0.359375 -0.203125 -0.90625 -0.203125q-0.796875 0 -1.484375 0.296875q-0.6875 0.296875 -1.234375 0.671875l-0.59375 -1.0625q0.640625 -0.421875 1.546875 -0.796875q0.921875 -0.390625 2.015625 -0.390625q1.65625 0 2.40625 1.03125q0.75 1.015625 0.75 2.7031288l0 5.5625l-1.265625 0l-0.140625 -1.078125l-0.046875 0q-0.65625 0.53125 -1.40625 0.921875q-0.734375 0.375 -1.59375 0.375zm0.4375 -1.21875q0.65625 0 1.234375 -0.3125q0.578125 -0.3125 1.234375 -0.90625l0 -2.515625q-1.140625 0.140625 -1.921875 0.359375q-0.765625 0.203125 -1.25 0.484375q-0.46875 0.265625 -0.6875 0.640625q-0.203125 0.359375 -0.203125 0.78125q0 0.796875 0.453125 1.140625q0.46875 0.328125 1.140625 0.328125zm9.469543 1.21875q-0.734375 0 -1.234375 -0.21875q-0.484375 -0.21875 -0.796875 -0.609375q-0.3125 -0.390625 -0.4375 -0.953125q-0.125 -0.5625 -0.125 -1.234375l0 -5.015629l-1.34375 0l0 -1.15625l1.40625 -0.09375l0.1875 -2.546875l1.296875 0l0 2.546875l2.4375 0l0 1.25l-2.4375 0l0 5.031254q0 0.84375 0.296875 1.296875q0.3125 0.453125 1.09375 0.453125q0.25 0 0.53125 -0.0625q0.28125 -0.078125 0.5 -0.171875l0.296875 1.15625q-0.375 0.125 -0.8125 0.21875q-0.4375 0.109375 -0.859375 0.109375zm6.7163544 0q-0.84375 0 -1.609375 -0.3125q-0.75 -0.3125 -1.328125 -0.921875q-0.578125 -0.609375 -0.921875 -1.484375q-0.34375 -0.890625 -0.34375 -2.015625q0 -1.140625 0.34375 -2.0156288q0.34375 -0.890625 0.921875 -1.5q0.578125 -0.625 1.328125 -0.9375q0.765625 -0.328125 1.609375 -0.328125q0.828125 0 1.578125 0.328125q0.765625 0.3125 1.34375 0.9375q0.578125 0.609375 0.92185974 1.5q0.34375 0.8750038 0.34375 2.0156288q0 1.125 -0.34375 2.015625q-0.34373474 0.875 -0.92185974 1.484375q-0.578125 0.609375 -1.34375 0.921875q-0.75 0.3125 -1.578125 0.3125zm0 -1.265625q0.578125 0 1.0625 -0.25q0.484375 -0.25 0.828125 -0.703125q0.34375 -0.46875 0.53125 -1.09375q0.1875 -0.640625 0.1875 -1.421875q0 -0.78125 -0.1875 -1.4218788q-0.1875 -0.640625 -0.53125 -1.109375q-0.34375 -0.46875 -0.828125 -0.71875q-0.484375 -0.25 -1.0625 -0.25q-0.578125 0 -1.078125 0.25q-0.484375 0.25 -0.828125 0.71875q-0.34375 0.46875 -0.53125 1.109375q-0.1875 0.6406288 -0.1875 1.4218788q0 0.78125 0.1875 1.421875q0.1875 0.625 0.53125 1.09375q0.34375 0.453125 0.828125 0.703125q0.5 0.25 1.078125 0.25zm6.580429 1.046875l0 -9.062504l1.265625 0l0.125 1.640625l0.0625 0q0.46875 -0.859375 1.125 -1.359375q0.671875 -0.515625 1.453125 -0.515625q0.53125 0 0.96875 0.1875l-0.296875 1.34375q-0.234375 -0.0625 -0.421875 -0.09375q-0.171875 -0.046875 -0.453125 -0.046875q-0.578125 0 -1.203125 0.46875q-0.625 0.453125 -1.09375 1.609375l0 5.828129l-1.53125 0z" fill-rule="nonzero"/><path fill="#c9daf8" d="m195.93439 26.194225l156.31494 0l0 73.16536l-156.31494 0z" fill-rule="evenodd"/><path stroke="#000000" stroke-width="1.0" stroke-linejoin="round" stroke-linecap="butt" d="m195.93439 26.194225l156.31494 0l0 73.16536l-156.31494 0z" fill-rule="evenodd"/><path fill="#000000" d="m218.1159 69.69691l0 -12.234379l1.875 0l2.34375 6.53125q0.234375 0.6250038 0.4375 1.2812538q0.21875 0.640625 0.4375 1.265625l0.078125 0q0.234375 -0.625 0.421875 -1.265625q0.203125 -0.65625 0.421875 -1.2812538l2.3125 -6.53125l1.890625 0l0 12.234379l-1.46875 0l0 -6.734379q0 -0.828125 0.078125 -1.8125q0.078125 -0.984375 0.140625 -1.8125l-0.078125 0l-0.96875 2.78125l-2.3125 6.343754l-1.03125 0l-2.3125 -6.343754l-0.96875 -2.78125l-0.078125 0q0.0625 0.828125 0.125 1.8125q0.0625 0.984375 0.0625 1.8125l0 6.734379l-1.40625 0zm16.95372 0.21875q-0.84375 0 -1.609375 -0.3125q-0.75 -0.3125 -1.328125 -0.921875q-0.578125 -0.609375 -0.921875 -1.484375q-0.34375 -0.890625 -0.34375 -2.015625q0 -1.140625 0.34375 -2.0156288q0.34375 -0.890625 0.921875 -1.5q0.578125 -0.625 1.328125 -0.9375q0.765625 -0.328125 1.609375 -0.328125q0.828125 0 1.578125 0.328125q0.765625 0.3125 1.34375 0.9375q0.578125 0.609375 0.921875 1.5q0.34375 0.8750038 0.34375 2.0156288q0 1.125 -0.34375 2.015625q-0.34375 0.875 -0.921875 1.484375q-0.578125 0.609375 -1.34375 0.921875q-0.75 0.3125 -1.578125 0.3125zm0 -1.265625q0.578125 0 1.0625 -0.25q0.484375 -0.25 0.828125 -0.703125q0.34375 -0.46875 0.53125 -1.09375q0.1875 -0.640625 0.1875 -1.421875q0 -0.78125 -0.1875 -1.4218788q-0.1875 -0.640625 -0.53125 -1.109375q-0.34375 -0.46875 -0.828125 -0.71875q-0.484375 -0.25 -1.0625 -0.25q-0.578125 0 -1.078125 0.25q-0.484375 0.25 -0.828125 0.71875q-0.34375 0.46875 -0.53125 1.109375q-0.1875 0.6406288 -0.1875 1.4218788q0 0.78125 0.1875 1.421875q0.1875 0.625 0.53125 1.09375q0.34375 0.453125 0.828125 0.703125q0.5 0.25 1.078125 0.25zm9.674194 1.265625q-1.71875 0 -2.734375 -1.21875q-1.015625 -1.234375 -1.015625 -3.515625q0 -1.09375 0.328125 -1.9843788q0.328125 -0.890625 0.859375 -1.5q0.546875 -0.625 1.25 -0.953125q0.71875 -0.34375 1.5 -0.34375q0.78125 0 1.359375 0.28125q0.578125 0.28125 1.171875 0.765625l-0.0625 -1.546875l0 -3.484375l1.546875 0l0 13.281254l-1.265625 0l-0.140625 -1.0625l-0.046875 0q-0.546875 0.515625 -1.25 0.90625q-0.703125 0.375 -1.5 0.375zm0.34375 -1.28125q0.625 0 1.1875 -0.296875q0.5625 -0.3125 1.125 -0.953125l0 -4.734379q-0.578125 -0.53125 -1.109375 -0.734375q-0.53125 -0.21875 -1.09375 -0.21875q-0.546875 0 -1.03125 0.25q-0.46875 0.25 -0.828125 0.71875q-0.34375 0.453125 -0.546875 1.09375q-0.203125 0.6250038 -0.203125 1.4062538q0 1.640625 0.640625 2.5625q0.65625 0.90625 1.859375 0.90625zm10.588593 1.28125q-0.90625 0 -1.703125 -0.3125q-0.796875 -0.328125 -1.390625 -0.9375q-0.578125 -0.609375 -0.921875 -1.484375q-0.328125 -0.875 -0.328125 -2.0q0 -1.125 0.34375 -2.0000038q0.34375 -0.890625 0.90625 -1.5q0.578125 -0.625 1.296875 -0.953125q0.734375 -0.328125 1.515625 -0.328125q0.85939026 0 1.5312653 0.3125q0.6875 0.296875 1.140625 0.859375q0.46875 0.546875 0.703125 1.34375q0.25 0.78125 0.25 1.7500038q0 0.234375 -0.015625 0.46875q0 0.234375 -0.046875 0.40625l-6.1093903 0q0.09375 1.453125 0.890625 2.3125q0.8125 0.84375 2.125 0.84375q0.65626526 0 1.2031403 -0.203125q0.546875 -0.203125 1.0625 -0.515625l0.53125 1.015625q-0.59375 0.375 -1.328125 0.65625q-0.71875 0.265625 -1.6562653 0.265625zm-2.859375 -5.484375l4.8593903 0q0 -1.3750038 -0.59375 -2.0937538q-0.578125 -0.71875 -1.6406403 -0.71875q-0.484375 0 -0.9375 0.1875q-0.4375 0.1875 -0.796875 0.546875q-0.34375 0.359375 -0.578125 0.890625q-0.234375 0.515625 -0.3125 1.1875038zm10.066025 5.484375q-0.875 0 -1.25 -0.515625q-0.375 -0.53125 -0.375 -1.53125l0 -11.453129l1.53125 0l0 11.562504q0 0.375 0.125 0.53125q0.140625 0.140625 0.296875 0.140625q0.078125 0 0.140625 0q0.0625 0 0.203125 -0.03125l0.203125 1.15625q-0.15625 0.078125 -0.359375 0.109375q-0.203125 0.03125 -0.515625 0.03125zm9.238586 0q-0.984375 0 -1.859375 -0.34375q-0.875 -0.359375 -1.53125 -0.90625l0.765625 -1.015625q0.609375 0.484375 1.234375 0.78125q0.625 0.296875 1.4375 0.296875q0.890625 0 1.34375 -0.40625q0.453125 -0.421875 0.453125 -1.015625q0 -0.359375 -0.1875 -0.609375q-0.1875 -0.265625 -0.484375 -0.453125q-0.28125 -0.203125 -0.65625 -0.34375q-0.375 -0.15625 -0.75 -0.3125q-0.484375 -0.15625 -0.96875 -0.375q-0.484375 -0.21875 -0.875 -0.515625q-0.375 -0.3125 -0.625 -0.7187538q-0.234375 -0.421875 -0.234375 -1.0q0 -0.53125 0.21875 -1.0q0.21875 -0.484375 0.609375 -0.828125q0.40625 -0.359375 0.984375 -0.546875q0.578125 -0.203125 1.296875 -0.203125q0.859375 0 1.578125 0.3125q0.71875 0.296875 1.25 0.71875l-0.734375 0.96875q-0.46875 -0.359375 -0.96875 -0.578125q-0.5 -0.21875 -1.09375 -0.21875q-0.859375 0 -1.265625 0.390625q-0.40625 0.390625 -0.40625 0.90625q0 0.328125 0.171875 0.5625q0.171875 0.234375 0.453125 0.40625q0.28125 0.17187881 0.640625 0.3125038q0.359375 0.140625 0.75 0.296875q0.484375 0.1875 0.984375 0.390625q0.5 0.203125 0.890625 0.515625q0.390625 0.296875 0.640625 0.75q0.25 0.453125 0.25 1.078125q0 0.5625 -0.21875 1.046875q-0.203125 0.484375 -0.625 0.859375q-0.421875 0.375 -1.046875 0.578125q-0.625 0.21875 -1.421875 0.21875zm7.5357056 0q-1.140625 0 -1.90625 -0.671875q-0.75 -0.671875 -0.75 -1.890625q0 -1.5 1.328125 -2.28125q1.328125 -0.796875 4.234375 -1.1250038q0 -0.421875 -0.09375 -0.828125q-0.078125 -0.421875 -0.28125 -0.734375q-0.203125 -0.3125 -0.578125 -0.5q-0.359375 -0.203125 -0.90625 -0.203125q-0.796875 0 -1.484375 0.296875q-0.6875 0.296875 -1.234375 0.671875l-0.59375 -1.0625q0.640625 -0.421875 1.546875 -0.796875q0.921875 -0.390625 2.015625 -0.390625q1.65625 0 2.40625 1.03125q0.75 1.015625 0.75 2.7031288l0 5.5625l-1.265625 0l-0.140625 -1.078125l-0.046875 0q-0.65625 0.53125 -1.40625 0.921875q-0.734375 0.375 -1.59375 0.375zm0.4375 -1.21875q0.65625 0 1.234375 -0.3125q0.578125 -0.3125 1.234375 -0.90625l0 -2.515625q-1.140625 0.140625 -1.921875 0.359375q-0.765625 0.203125 -1.25 0.484375q-0.46875 0.265625 -0.6875 0.640625q-0.203125 0.359375 -0.203125 0.78125q0 0.796875 0.453125 1.140625q0.46875 0.328125 1.140625 0.328125zm6.871521 1.0l0 -9.062504l1.265625 0l0.125 1.296875l0.0625 0q0.59375 -0.640625 1.296875 -1.078125q0.703125 -0.453125 1.515625 -0.453125q1.046875 0 1.625 0.46875q0.59375 0.453125 0.875 1.265625q0.71875 -0.78125 1.4375 -1.25q0.71875 -0.484375 1.546875 -0.484375q1.40625 0 2.078125 0.90625q0.6875 0.890625 0.6875 2.640625l0 5.750004l-1.53125 0l0 -5.546875q0 -1.2812538 -0.40625 -1.8437538q-0.40625 -0.578125 -1.265625 -0.578125q-1.03125 0 -2.28125 1.40625l0 6.562504l-1.53125 0l0 -5.546875q0 -1.2812538 -0.40625 -1.8437538q-0.40625 -0.578125 -1.296875 -0.578125q-1.015625 0 -2.265625 1.40625l0 6.562504l-1.53125 0zm15.466034 3.828125l0 -12.890629l1.265625 0l0.125 1.046875l0.0625 0q0.609375 -0.53125 1.34375 -0.90625q0.75 -0.375 1.546875 -0.375q0.875 0 1.546875 0.328125q0.671875 0.328125 1.125 0.9375q0.453125 0.609375 0.671875 1.453125q0.234375 0.84375 0.234375 1.9062538q0 1.171875 -0.3125 2.078125q-0.3125 0.890625 -0.859375 1.53125q-0.53125 0.640625 -1.25 0.96875q-0.703125 0.3125 -1.484375 0.3125q-0.640625 0 -1.265625 -0.265625q-0.625 -0.28125 -1.265625 -0.78125l0.046875 1.59375l0 3.0625l-1.53125 0zm3.75 -4.890625q0.5625 0 1.03125 -0.25q0.484375 -0.25 0.828125 -0.703125q0.34375 -0.46875 0.53125 -1.140625q0.203125 -0.671875 0.203125 -1.515625q0 -0.734375 -0.140625 -1.3437538q-0.125 -0.625 -0.421875 -1.0625q-0.28125 -0.4375 -0.734375 -0.671875q-0.453125 -0.25 -1.09375 -0.25q-0.578125 0 -1.171875 0.3125q-0.578125 0.3125 -1.25 0.921875l0 4.750004q0.609375 0.515625 1.1875 0.734375q0.578125 0.21875 1.03125 0.21875zm8.229218 1.28125q-0.875 0 -1.25 -0.515625q-0.375 -0.53125 -0.375 -1.53125l0 -11.453129l1.53125 0l0 11.562504q0 0.375 0.125 0.53125q0.140625 0.140625 0.296875 0.140625q0.078125 0 0.140625 0q0.0625 0 0.203125 -0.03125l0.203125 1.15625q-0.15625 0.078125 -0.359375 0.109375q-0.203125 0.03125 -0.515625 0.03125zm6.804199 0q-0.90625 0 -1.703125 -0.3125q-0.796875 -0.328125 -1.390625 -0.9375q-0.578125 -0.609375 -0.921875 -1.484375q-0.328125 -0.875 -0.328125 -2.0q0 -1.125 0.34375 -2.0000038q0.34375 -0.890625 0.90625 -1.5q0.578125 -0.625 1.296875 -0.953125q0.734375 -0.328125 1.515625 -0.328125q0.859375 0 1.53125 0.3125q0.6875 0.296875 1.140625 0.859375q0.46875 0.546875 0.703125 1.34375q0.25 0.78125 0.25 1.7500038q0 0.234375 -0.015625 0.46875q0 0.234375 -0.046875 0.40625l-6.109375 0q0.09375 1.453125 0.890625 2.3125q0.8125 0.84375 2.125 0.84375q0.65625 0 1.203125 -0.203125q0.546875 -0.203125 1.0625 -0.515625l0.53125 1.015625q-0.59375 0.375 -1.328125 0.65625q-0.71875 0.265625 -1.65625 0.265625zm-2.859375 -5.484375l4.859375 0q0 -1.3750038 -0.59375 -2.0937538q-0.578125 -0.71875 -1.640625 -0.71875q-0.484375 0 -0.9375 0.1875q-0.4375 0.1875 -0.796875 0.546875q-0.34375 0.359375 -0.578125 0.890625q-0.234375 0.515625 -0.3125 1.1875038zm8.4410095 5.265625l0 -9.062504l1.265625 0l0.125 1.640625l0.0625 0q0.46875 -0.859375 1.125 -1.359375q0.671875 -0.515625 1.453125 -0.515625q0.53125 0 0.96875 0.1875l-0.296875 1.34375q-0.234375 -0.0625 -0.421875 -0.09375q-0.171875 -0.046875 -0.453125 -0.046875q-0.578125 0 -1.203125 0.46875q-0.625 0.453125 -1.09375 1.609375l0 5.828129l-1.53125 0z" fill-rule="nonzero"/><path fill="#c9daf8" d="m22.606298 114.34646l502.96066 0l0 46.14173l-502.96066 0z" fill-rule="evenodd"/><path stroke="#000000" stroke-width="1.0" stroke-linejoin="round" stroke-linecap="butt" d="m22.606298 114.34646l502.96066 0l0 46.14173l-502.96066 0z" fill-rule="evenodd"/><path fill="#000000" d="m190.39227 144.55608q-1.15625 0 -2.140625 -0.421875q-0.96875 -0.4375 -1.6875 -1.234375q-0.71875 -0.8125 -1.125 -2.0q-0.390625 -1.1875 -0.390625 -2.6875q0 -1.46875 0.40625 -2.640625q0.421875 -1.171875 1.140625 -1.984375q0.734375 -0.828125 1.71875 -1.265625q0.984375 -0.453125 2.171875 -0.453125q1.109375 0 1.953125 0.46875q0.859375 0.453125 1.390625 1.046875l-0.828125 1.015625q-0.484375 -0.53125 -1.109375 -0.84375q-0.609375 -0.3125 -1.390625 -0.3125q-0.875 0 -1.59375 0.34375q-0.703125 0.34375 -1.21875 0.984375q-0.5 0.640625 -0.765625 1.5625q-0.265625 0.90625 -0.265625 2.046875q0 1.15625 0.265625 2.078125q0.265625 0.921875 0.75 1.578125q0.484375 0.65625 1.1875 1.015625q0.703125 0.34375 1.578125 0.34375q0.890625 0 1.5625 -0.359375q0.671875 -0.359375 1.28125 -1.015625l0.859375 0.96875q-0.734375 0.84375 -1.65625 1.3125q-0.90625 0.453125 -2.09375 0.453125zm9.402725 0q-0.84375 0 -1.609375 -0.3125q-0.75 -0.3125 -1.328125 -0.921875q-0.578125 -0.609375 -0.921875 -1.484375q-0.34375 -0.890625 -0.34375 -2.015625q0 -1.140625 0.34375 -2.015625q0.34375 -0.890625 0.921875 -1.5q0.578125 -0.625 1.328125 -0.9375q0.765625 -0.328125 1.609375 -0.328125q0.828125 0 1.578125 0.328125q0.765625 0.3125 1.34375 0.9375q0.578125 0.609375 0.921875 1.5q0.34375 0.875 0.34375 2.015625q0 1.125 -0.34375 2.015625q-0.34375 0.875 -0.921875 1.484375q-0.578125 0.609375 -1.34375 0.921875q-0.75 0.3125 -1.578125 0.3125zm0 -1.265625q0.578125 0 1.0625 -0.25q0.484375 -0.25 0.828125 -0.703125q0.34375 -0.46875 0.53125 -1.09375q0.1875 -0.640625 0.1875 -1.421875q0 -0.78125 -0.1875 -1.421875q-0.1875 -0.640625 -0.53125 -1.109375q-0.34375 -0.46875 -0.828125 -0.71875q-0.484375 -0.25 -1.0625 -0.25q-0.578125 0 -1.078125 0.25q-0.484375 0.25 -0.828125 0.71875q-0.34375 0.46875 -0.53125 1.109375q-0.1875 0.640625 -0.1875 1.421875q0 0.78125 0.1875 1.421875q0.1875 0.625 0.53125 1.09375q0.34375 0.453125 0.828125 0.703125q0.5 0.25 1.078125 0.25zm6.5804443 1.046875l0 -9.0625l1.265625 0l0.125 1.296875l0.0625 0q0.65625 -0.640625 1.375 -1.078125q0.71875 -0.453125 1.671875 -0.453125q1.4375 0 2.09375 0.90625q0.65625 0.890625 0.65625 2.640625l0 5.75l-1.53125 0l0 -5.546875q0 -1.28125 -0.40625 -1.84375q-0.40625 -0.578125 -1.296875 -0.578125q-0.71875 0 -1.265625 0.359375q-0.53125 0.359375 -1.21875 1.046875l0 6.5625l-1.53125 0zm10.470596 0l0 -7.8125l-1.234375 0l0 -1.15625l1.234375 -0.09375l0 -1.4375q0 -1.40625 0.640625 -2.203125q0.640625 -0.796875 2.0 -0.796875q0.4375 0 0.8125 0.078125q0.390625 0.078125 0.703125 0.21875l-0.34375 1.171875q-0.5 -0.21875 -1.015625 -0.21875q-1.265625 0 -1.265625 1.75l0 1.4375l1.921875 0l0 1.25l-1.921875 0l0 7.8125l-1.53125 0zm5.182007 0l0 -9.0625l1.53125 0l0 9.0625l-1.53125 0zm0.78125 -10.9375q-0.453125 0 -0.765625 -0.28125q-0.296875 -0.28125 -0.296875 -0.703125q0 -0.453125 0.296875 -0.71875q0.3125 -0.265625 0.765625 -0.265625q0.453125 0 0.75 0.265625q0.3125 0.265625 0.3125 0.71875q0 0.421875 -0.3125 0.703125q-0.296875 0.28125 -0.75 0.28125zm6.870682 15.109375q-0.84375 0 -1.53125 -0.15625q-0.6875 -0.15625 -1.1875 -0.46875q-0.5 -0.3125 -0.765625 -0.765625q-0.265625 -0.453125 -0.265625 -1.046875q0 -0.578125 0.34375 -1.109375q0.359375 -0.515625 0.984375 -0.9375l0 -0.078125q-0.34375 -0.203125 -0.578125 -0.5625q-0.234375 -0.375 -0.234375 -0.90625q0 -0.578125 0.3125 -1.0q0.328125 -0.4375 0.671875 -0.6875l0 -0.078125q-0.4375 -0.375 -0.8125 -1.0q-0.359375 -0.625 -0.359375 -1.4375q0 -0.75 0.265625 -1.34375q0.28125 -0.59375 0.75 -1.015625q0.46875 -0.421875 1.09375 -0.640625q0.625 -0.234375 1.3125 -0.234375q0.375 0 0.6875 0.078125q0.328125 0.0625 0.59375 0.15625l3.15625 0l0 1.171875l-1.875 0q0.328125 0.3125 0.53125 0.796875q0.21875 0.484375 0.21875 1.0625q0 0.734375 -0.265625 1.328125q-0.25 0.578125 -0.703125 0.984375q-0.4375 0.390625 -1.046875 0.625q-0.609375 0.21875 -1.296875 0.21875q-0.34375 0 -0.703125 -0.078125q-0.34375 -0.09375 -0.65625 -0.234375q-0.25 0.203125 -0.421875 0.453125q-0.15625 0.25 -0.15625 0.625q0 0.4375 0.328125 0.71875q0.34375 0.265625 1.265625 0.265625l1.75 0q1.59375 0 2.375 0.515625q0.796875 0.515625 0.796875 1.65625q0 0.625 -0.3125 1.1875q-0.3125 0.578125 -0.921875 1.0q-0.59375 0.4375 -1.4375 0.6875q-0.84375 0.25 -1.90625 0.25zm0 -8.078125q0.390625 0 0.734375 -0.140625q0.34375 -0.15625 0.609375 -0.421875q0.28125 -0.28125 0.421875 -0.6875q0.15625 -0.40625 0.15625 -0.90625q0 -1.015625 -0.5625 -1.5625q-0.5625 -0.546875 -1.359375 -0.546875q-0.8125 0 -1.375 0.546875q-0.546875 0.546875 -0.546875 1.5625q0 0.5 0.140625 0.90625q0.15625 0.40625 0.421875 0.6875q0.265625 0.265625 0.609375 0.421875q0.359375 0.140625 0.75 0.140625zm0.21875 7.015625q0.65625 0 1.1875 -0.15625q0.53125 -0.15625 0.90625 -0.40625q0.375 -0.25 0.578125 -0.59375q0.203125 -0.328125 0.203125 -0.6875q0 -0.625 -0.46875 -0.875q-0.46875 -0.234375 -1.359375 -0.234375l-1.5625 0q-0.265625 0 -0.578125 -0.03125q-0.296875 -0.03125 -0.609375 -0.125q-0.484375 0.359375 -0.703125 0.75q-0.21875 0.390625 -0.21875 0.78125q0 0.71875 0.6875 1.140625q0.703125 0.4375 1.9375 0.4375zm8.762131 -2.890625q-1.453125 0 -2.109375 -0.890625q-0.65625 -0.890625 -0.65625 -2.65625l0 -5.734375l1.546875 0l0 5.53125q0 1.296875 0.390625 1.875q0.40625 0.5625 1.296875 0.5625q0.71875 0 1.25 -0.359375q0.546875 -0.375 1.203125 -1.171875l0 -6.4375l1.53125 0l0 9.0625l-1.28125 0l-0.125 -1.421875l-0.0625 0q-0.625 0.75 -1.328125 1.203125q-0.703125 0.4375 -1.65625 0.4375zm7.508377 -0.21875l0 -9.0625l1.265625 0l0.125 1.640625l0.0625 0q0.46875 -0.859375 1.125 -1.359375q0.671875 -0.515625 1.453125 -0.515625q0.53125 0 0.96875 0.1875l-0.296875 1.34375q-0.234375 -0.0625 -0.421875 -0.09375q-0.171875 -0.046875 -0.453125 -0.046875q-0.578125 0 -1.203125 0.46875q-0.625 0.453125 -1.09375 1.609375l0 5.828125l-1.53125 0zm8.119476 0.21875q-1.140625 0 -1.90625 -0.671875q-0.75 -0.671875 -0.75 -1.890625q0 -1.5 1.328125 -2.28125q1.328125 -0.796875 4.2343903 -1.125q0 -0.421875 -0.09375 -0.828125q-0.078125 -0.421875 -0.28125 -0.734375q-0.203125 -0.3125 -0.578125 -0.5q-0.35939026 -0.203125 -0.90626526 -0.203125q-0.796875 0 -1.484375 0.296875q-0.6875 0.296875 -1.234375 0.671875l-0.59375 -1.0625q0.640625 -0.421875 1.546875 -0.796875q0.921875 -0.390625 2.015625 -0.390625q1.6562653 0 2.4062653 1.03125q0.75 1.015625 0.75 2.703125l0 5.5625l-1.265625 0l-0.140625 -1.078125l-0.046875 0q-0.65625 0.53125 -1.4062653 0.921875q-0.734375 0.375 -1.59375 0.375zm0.4375 -1.21875q0.65625 0 1.234375 -0.3125q0.57814026 -0.3125 1.2343903 -0.90625l0 -2.515625q-1.140625 0.140625 -1.9218903 0.359375q-0.765625 0.203125 -1.25 0.484375q-0.46875 0.265625 -0.6875 0.640625q-0.203125 0.359375 -0.203125 0.78125q0 0.796875 0.453125 1.140625q0.46875 0.328125 1.140625 0.328125zm9.469559 1.21875q-0.734375 0 -1.234375 -0.21875q-0.484375 -0.21875 -0.796875 -0.609375q-0.3125 -0.390625 -0.4375 -0.953125q-0.125 -0.5625 -0.125 -1.234375l0 -5.015625l-1.34375 0l0 -1.15625l1.40625 -0.09375l0.1875 -2.546875l1.296875 0l0 2.546875l2.4375 0l0 1.25l-2.4375 0l0 5.03125q0 0.84375 0.296875 1.296875q0.3125 0.453125 1.09375 0.453125q0.25 0 0.53125 -0.0625q0.28125 -0.078125 0.5 -0.171875l0.296875 1.15625q-0.375 0.125 -0.8125 0.21875q-0.4375 0.109375 -0.859375 0.109375zm3.4464417 -0.21875l0 -9.0625l1.53125 0l0 9.0625l-1.53125 0zm0.78125 -10.9375q-0.453125 0 -0.765625 -0.28125q-0.296875 -0.28125 -0.296875 -0.703125q0 -0.453125 0.296875 -0.71875q0.3125 -0.265625 0.765625 -0.265625q0.453125 0 0.75 0.265625q0.3125 0.265625 0.3125 0.71875q0 0.421875 -0.3125 0.703125q-0.296875 0.28125 -0.75 0.28125zm7.3394165 11.15625q-0.84375 0 -1.609375 -0.3125q-0.75 -0.3125 -1.328125 -0.921875q-0.578125 -0.609375 -0.921875 -1.484375q-0.34375 -0.890625 -0.34375 -2.015625q0 -1.140625 0.34375 -2.015625q0.34375 -0.890625 0.921875 -1.5q0.578125 -0.625 1.328125 -0.9375q0.765625 -0.328125 1.609375 -0.328125q0.828125 0 1.578125 0.328125q0.765625 0.3125 1.34375 0.9375q0.578125 0.609375 0.921875 1.5q0.34375 0.875 0.34375 2.015625q0 1.125 -0.34375 2.015625q-0.34375 0.875 -0.921875 1.484375q-0.578125 0.609375 -1.34375 0.921875q-0.75 0.3125 -1.578125 0.3125zm0 -1.265625q0.578125 0 1.0625 -0.25q0.484375 -0.25 0.828125 -0.703125q0.34375 -0.46875 0.53125 -1.09375q0.1875 -0.640625 0.1875 -1.421875q0 -0.78125 -0.1875 -1.421875q-0.1875 -0.640625 -0.53125 -1.109375q-0.34375 -0.46875 -0.828125 -0.71875q-0.484375 -0.25 -1.0625 -0.25q-0.578125 0 -1.078125 0.25q-0.484375 0.25 -0.828125 0.71875q-0.34375 0.46875 -0.53125 1.109375q-0.1875 0.640625 -0.1875 1.421875q0 0.78125 0.1875 1.421875q0.1875 0.625 0.53125 1.09375q0.34375 0.453125 0.828125 0.703125q0.5 0.25 1.078125 0.25zm6.5804443 1.046875l0 -9.0625l1.265625 0l0.125 1.296875l0.0625 0q0.65625 -0.640625 1.375 -1.078125q0.71875 -0.453125 1.671875 -0.453125q1.4375 0 2.09375 0.90625q0.65625 0.890625 0.65625 2.640625l0 5.75l-1.53125 0l0 -5.546875q0 -1.28125 -0.40625 -1.84375q-0.40625 -0.578125 -1.296875 -0.578125q-0.71875 0 -1.265625 0.359375q-0.53125 0.359375 -1.21875 1.046875l0 6.5625l-1.53125 0zm13.936218 0l0 -9.0625l1.265625 0l0.125 1.296875l0.0625 0q0.59375 -0.640625 1.296875 -1.078125q0.703125 -0.453125 1.515625 -0.453125q1.046875 0 1.625 0.46875q0.59375 0.453125 0.875 1.265625q0.71875 -0.78125 1.4375 -1.25q0.71875 -0.484375 1.546875 -0.484375q1.40625 0 2.078125 0.90625q0.6875 0.890625 0.6875 2.640625l0 5.75l-1.53125 0l0 -5.546875q0 -1.28125 -0.40625 -1.84375q-0.40625 -0.578125 -1.265625 -0.578125q-1.03125 0 -2.28125 1.40625l0 6.5625l-1.53125 0l0 -5.546875q0 -1.28125 -0.40625 -1.84375q-0.40625 -0.578125 -1.296875 -0.578125q-1.015625 0 -2.265625 1.40625l0 6.5625l-1.53125 0zm17.559784 0.21875q-1.140625 0 -1.90625 -0.671875q-0.75 -0.671875 -0.75 -1.890625q0 -1.5 1.328125 -2.28125q1.328125 -0.796875 4.234375 -1.125q0 -0.421875 -0.09375 -0.828125q-0.078125 -0.421875 -0.28125 -0.734375q-0.203125 -0.3125 -0.578125 -0.5q-0.359375 -0.203125 -0.90625 -0.203125q-0.796875 0 -1.484375 0.296875q-0.6875 0.296875 -1.234375 0.671875l-0.59375 -1.0625q0.640625 -0.421875 1.546875 -0.796875q0.921875 -0.390625 2.015625 -0.390625q1.65625 0 2.40625 1.03125q0.75 1.015625 0.75 2.703125l0 5.5625l-1.265625 0l-0.140625 -1.078125l-0.046875 0q-0.65625 0.53125 -1.40625 0.921875q-0.734375 0.375 -1.59375 0.375zm0.4375 -1.21875q0.65625 0 1.234375 -0.3125q0.578125 -0.3125 1.234375 -0.90625l0 -2.515625q-1.140625 0.140625 -1.921875 0.359375q-0.765625 0.203125 -1.25 0.484375q-0.46875 0.265625 -0.6875 0.640625q-0.203125 0.359375 -0.203125 0.78125q0 0.796875 0.453125 1.140625q0.46875 0.328125 1.140625 0.328125zm6.871521 1.0l0 -9.0625l1.265625 0l0.125 1.296875l0.0625 0q0.65625 -0.640625 1.375 -1.078125q0.71875 -0.453125 1.671875 -0.453125q1.4375 0 2.09375 0.90625q0.65625 0.890625 0.65625 2.640625l0 5.75l-1.53125 0l0 -5.546875q0 -1.28125 -0.40625 -1.84375q-0.40625 -0.578125 -1.296875 -0.578125q-0.71875 0 -1.265625 0.359375q-0.53125 0.359375 -1.21875 1.046875l0 6.5625l-1.53125 0zm12.298706 0.21875q-1.140625 0 -1.90625 -0.671875q-0.75 -0.671875 -0.75 -1.890625q0 -1.5 1.328125 -2.28125q1.328125 -0.796875 4.234375 -1.125q0 -0.421875 -0.09375 -0.828125q-0.078125 -0.421875 -0.28125 -0.734375q-0.203125 -0.3125 -0.578125 -0.5q-0.359375 -0.203125 -0.90625 -0.203125q-0.796875 0 -1.484375 0.296875q-0.6875 0.296875 -1.234375 0.671875l-0.59375 -1.0625q0.640625 -0.421875 1.546875 -0.796875q0.921875 -0.390625 2.015625 -0.390625q1.65625 0 2.40625 1.03125q0.75 1.015625 0.75 2.703125l0 5.5625l-1.265625 0l-0.140625 -1.078125l-0.046875 0q-0.65625 0.53125 -1.40625 0.921875q-0.734375 0.375 -1.59375 0.375zm0.4375 -1.21875q0.65625 0 1.234375 -0.3125q0.578125 -0.3125 1.234375 -0.90625l0 -2.515625q-1.140625 0.140625 -1.921875 0.359375q-0.765625 0.203125 -1.25 0.484375q-0.46875 0.265625 -0.6875 0.640625q-0.203125 0.359375 -0.203125 0.78125q0 0.796875 0.453125 1.140625q0.46875 0.328125 1.140625 0.328125zm9.934021 5.171875q-0.84375 0 -1.53125 -0.15625q-0.6875 -0.15625 -1.1875 -0.46875q-0.5 -0.3125 -0.765625 -0.765625q-0.265625 -0.453125 -0.265625 -1.046875q0 -0.578125 0.34375 -1.109375q0.359375 -0.515625 0.984375 -0.9375l0 -0.078125q-0.34375 -0.203125 -0.578125 -0.5625q-0.234375 -0.375 -0.234375 -0.90625q0 -0.578125 0.3125 -1.0q0.328125 -0.4375 0.671875 -0.6875l0 -0.078125q-0.4375 -0.375 -0.8125 -1.0q-0.359375 -0.625 -0.359375 -1.4375q0 -0.75 0.265625 -1.34375q0.28125 -0.59375 0.75 -1.015625q0.46875 -0.421875 1.09375 -0.640625q0.625 -0.234375 1.3125 -0.234375q0.375 0 0.6875 0.078125q0.328125 0.0625 0.59375 0.15625l3.15625 0l0 1.171875l-1.875 0q0.328125 0.3125 0.53125 0.796875q0.21875 0.484375 0.21875 1.0625q0 0.734375 -0.265625 1.328125q-0.25 0.578125 -0.703125 0.984375q-0.4375 0.390625 -1.046875 0.625q-0.609375 0.21875 -1.296875 0.21875q-0.34375 0 -0.703125 -0.078125q-0.34375 -0.09375 -0.65625 -0.234375q-0.25 0.203125 -0.421875 0.453125q-0.15625 0.25 -0.15625 0.625q0 0.4375 0.328125 0.71875q0.34375 0.265625 1.265625 0.265625l1.75 0q1.59375 0 2.375 0.515625q0.796875 0.515625 0.796875 1.65625q0 0.625 -0.3125 1.1875q-0.3125 0.578125 -0.921875 1.0q-0.59375 0.4375 -1.4375 0.6875q-0.84375 0.25 -1.90625 0.25zm0 -8.078125q0.390625 0 0.734375 -0.140625q0.34375 -0.15625 0.609375 -0.421875q0.28125 -0.28125 0.421875 -0.6875q0.15625 -0.40625 0.15625 -0.90625q0 -1.015625 -0.5625 -1.5625q-0.5625 -0.546875 -1.359375 -0.546875q-0.8125 0 -1.375 0.546875q-0.546875 0.546875 -0.546875 1.5625q0 0.5 0.140625 0.90625q0.15625 0.40625 0.421875 0.6875q0.265625 0.265625 0.609375 0.421875q0.359375 0.140625 0.75 0.140625zm0.21875 7.015625q0.65625 0 1.1875 -0.15625q0.53125 -0.15625 0.90625 -0.40625q0.375 -0.25 0.578125 -0.59375q0.203125 -0.328125 0.203125 -0.6875q0 -0.625 -0.46875 -0.875q-0.46875 -0.234375 -1.359375 -0.234375l-1.5625 0q-0.265625 0 -0.578125 -0.03125q-0.296875 -0.03125 -0.609375 -0.125q-0.484375 0.359375 -0.703125 0.75q-0.21875 0.390625 -0.21875 0.78125q0 0.71875 0.6875 1.140625q0.703125 0.4375 1.9375 0.4375zm9.532043 -2.890625q-0.90625 0 -1.703125 -0.3125q-0.796875 -0.328125 -1.390625 -0.9375q-0.578125 -0.609375 -0.921875 -1.484375q-0.328125 -0.875 -0.328125 -2.0q0 -1.125 0.34375 -2.0q0.34375 -0.890625 0.90625 -1.5q0.578125 -0.625 1.296875 -0.953125q0.734375 -0.328125 1.515625 -0.328125q0.859375 0 1.53125 0.3125q0.6875 0.296875 1.140625 0.859375q0.46875 0.546875 0.703125 1.34375q0.25 0.78125 0.25 1.75q0 0.234375 -0.015625 0.46875q0 0.234375 -0.046875 0.40625l-6.109375 0q0.09375 1.453125 0.890625 2.3125q0.8125 0.84375 2.125 0.84375q0.65625 0 1.203125 -0.203125q0.546875 -0.203125 1.0625 -0.515625l0.53125 1.015625q-0.59375 0.375 -1.328125 0.65625q-0.71875 0.265625 -1.65625 0.265625zm-2.859375 -5.484375l4.859375 0q0 -1.375 -0.59375 -2.09375q-0.578125 -0.71875 -1.640625 -0.71875q-0.484375 0 -0.9375 0.1875q-0.4375 0.1875 -0.796875 0.546875q-0.34375 0.359375 -0.578125 0.890625q-0.234375 0.515625 -0.3125 1.1875zm8.440979 5.265625l0 -9.0625l1.265625 0l0.125 1.640625l0.0625 0q0.46875 -0.859375 1.125 -1.359375q0.671875 -0.515625 1.453125 -0.515625q0.53125 0 0.96875 0.1875l-0.296875 1.34375q-0.234375 -0.0625 -0.421875 -0.09375q-0.171875 -0.046875 -0.453125 -0.046875q-0.578125 0 -1.203125 0.46875q-0.625 0.453125 -1.09375 1.609375l0 5.828125l-1.53125 0z" fill-rule="nonzero"/><path fill="#c9daf8" d="m369.26248 26.194225l156.31497 0l0 73.16536l-156.31497 0z" fill-rule="evenodd"/><path stroke="#000000" stroke-width="1.0" stroke-linejoin="round" stroke-linecap="butt" d="m369.26248 26.194225l156.31497 0l0 73.16536l-156.31497 0z" fill-rule="evenodd"/><path fill="#000000" d="m399.17715 69.69691l0 -12.234379l1.875 0l2.34375 6.53125q0.234375 0.6250038 0.4375 1.2812538q0.21875 0.640625 0.4375 1.265625l0.078125 0q0.234375 -0.625 0.421875 -1.265625q0.203125 -0.65625 0.421875 -1.2812538l2.3125 -6.53125l1.890625 0l0 12.234379l-1.46875 0l0 -6.734379q0 -0.828125 0.078125 -1.8125q0.078125 -0.984375 0.140625 -1.8125l-0.078125 0l-0.96875 2.78125l-2.3125 6.343754l-1.03125 0l-2.3125 -6.343754l-0.96875 -2.78125l-0.078125 0q0.0625 0.828125 0.125 1.8125q0.0625 0.984375 0.0625 1.8125l0 6.734379l-1.40625 0zm16.953735 0.21875q-0.84375 0 -1.609375 -0.3125q-0.75 -0.3125 -1.328125 -0.921875q-0.578125 -0.609375 -0.921875 -1.484375q-0.34375 -0.890625 -0.34375 -2.015625q0 -1.140625 0.34375 -2.0156288q0.34375 -0.890625 0.921875 -1.5q0.578125 -0.625 1.328125 -0.9375q0.765625 -0.328125 1.609375 -0.328125q0.828125 0 1.578125 0.328125q0.765625 0.3125 1.34375 0.9375q0.578125 0.609375 0.921875 1.5q0.34375 0.8750038 0.34375 2.0156288q0 1.125 -0.34375 2.015625q-0.34375 0.875 -0.921875 1.484375q-0.578125 0.609375 -1.34375 0.921875q-0.75 0.3125 -1.578125 0.3125zm0 -1.265625q0.578125 0 1.0625 -0.25q0.484375 -0.25 0.828125 -0.703125q0.34375 -0.46875 0.53125 -1.09375q0.1875 -0.640625 0.1875 -1.421875q0 -0.78125 -0.1875 -1.4218788q-0.1875 -0.640625 -0.53125 -1.109375q-0.34375 -0.46875 -0.828125 -0.71875q-0.484375 -0.25 -1.0625 -0.25q-0.578125 0 -1.078125 0.25q-0.484375 0.25 -0.828125 0.71875q-0.34375 0.46875 -0.53125 1.109375q-0.1875 0.6406288 -0.1875 1.4218788q0 0.78125 0.1875 1.421875q0.1875 0.625 0.53125 1.09375q0.34375 0.453125 0.828125 0.703125q0.5 0.25 1.078125 0.25zm9.674194 1.265625q-1.71875 0 -2.734375 -1.21875q-1.015625 -1.234375 -1.015625 -3.515625q0 -1.09375 0.328125 -1.9843788q0.328125 -0.890625 0.859375 -1.5q0.546875 -0.625 1.25 -0.953125q0.71875 -0.34375 1.5 -0.34375q0.78125 0 1.359375 0.28125q0.578125 0.28125 1.171875 0.765625l-0.0625 -1.546875l0 -3.484375l1.546875 0l0 13.281254l-1.265625 0l-0.140625 -1.0625l-0.046875 0q-0.546875 0.515625 -1.25 0.90625q-0.703125 0.375 -1.5 0.375zm0.34375 -1.28125q0.625 0 1.1875 -0.296875q0.5625 -0.3125 1.125 -0.953125l0 -4.734379q-0.578125 -0.53125 -1.109375 -0.734375q-0.53125 -0.21875 -1.09375 -0.21875q-0.546875 0 -1.03125 0.25q-0.46875 0.25 -0.828125 0.71875q-0.34375 0.453125 -0.546875 1.09375q-0.203125 0.6250038 -0.203125 1.4062538q0 1.640625 0.640625 2.5625q0.65625 0.90625 1.859375 0.90625zm10.588593 1.28125q-0.90625 0 -1.703125 -0.3125q-0.796875 -0.328125 -1.390625 -0.9375q-0.578125 -0.609375 -0.921875 -1.484375q-0.328125 -0.875 -0.328125 -2.0q0 -1.125 0.34375 -2.0000038q0.34375 -0.890625 0.90625 -1.5q0.578125 -0.625 1.296875 -0.953125q0.734375 -0.328125 1.515625 -0.328125q0.859375 0 1.53125 0.3125q0.6875 0.296875 1.140625 0.859375q0.46875 0.546875 0.703125 1.34375q0.25 0.78125 0.25 1.7500038q0 0.234375 -0.015625 0.46875q0 0.234375 -0.046875 0.40625l-6.109375 0q0.09375 1.453125 0.890625 2.3125q0.8125 0.84375 2.125 0.84375q0.65625 0 1.203125 -0.203125q0.546875 -0.203125 1.0625 -0.515625l0.53125 1.015625q-0.59375 0.375 -1.328125 0.65625q-0.71875 0.265625 -1.65625 0.265625zm-2.859375 -5.484375l4.859375 0q0 -1.3750038 -0.59375 -2.0937538q-0.578125 -0.71875 -1.640625 -0.71875q-0.484375 0 -0.9375 0.1875q-0.4375 0.1875 -0.796875 0.546875q-0.34375 0.359375 -0.578125 0.890625q-0.234375 0.515625 -0.3125 1.1875038zm10.0660095 5.484375q-0.875 0 -1.25 -0.515625q-0.375 -0.53125 -0.375 -1.53125l0 -11.453129l1.53125 0l0 11.562504q0 0.375 0.125 0.53125q0.140625 0.140625 0.296875 0.140625q0.078125 0 0.140625 0q0.0625 0 0.203125 -0.03125l0.203125 1.15625q-0.15625 0.078125 -0.359375 0.109375q-0.203125 0.03125 -0.515625 0.03125zm9.238586 0q-0.984375 0 -1.859375 -0.34375q-0.875 -0.359375 -1.53125 -0.90625l0.765625 -1.015625q0.609375 0.484375 1.234375 0.78125q0.625 0.296875 1.4375 0.296875q0.890625 0 1.34375 -0.40625q0.453125 -0.421875 0.453125 -1.015625q0 -0.359375 -0.1875 -0.609375q-0.1875 -0.265625 -0.484375 -0.453125q-0.28125 -0.203125 -0.65625 -0.34375q-0.375 -0.15625 -0.75 -0.3125q-0.484375 -0.15625 -0.96875 -0.375q-0.484375 -0.21875 -0.875 -0.515625q-0.375 -0.3125 -0.625 -0.7187538q-0.234375 -0.421875 -0.234375 -1.0q0 -0.53125 0.21875 -1.0q0.21875 -0.484375 0.609375 -0.828125q0.40625 -0.359375 0.984375 -0.546875q0.578125 -0.203125 1.296875 -0.203125q0.859375 0 1.578125 0.3125q0.71875 0.296875 1.25 0.71875l-0.734375 0.96875q-0.46875 -0.359375 -0.96875 -0.578125q-0.5 -0.21875 -1.09375 -0.21875q-0.859375 0 -1.265625 0.390625q-0.40625 0.390625 -0.40625 0.90625q0 0.328125 0.171875 0.5625q0.171875 0.234375 0.453125 0.40625q0.28125 0.17187881 0.640625 0.3125038q0.359375 0.140625 0.75 0.296875q0.484375 0.1875 0.984375 0.390625q0.5 0.203125 0.890625 0.515625q0.390625 0.296875 0.640625 0.75q0.25 0.453125 0.25 1.078125q0 0.5625 -0.21875 1.046875q-0.203125 0.484375 -0.625 0.859375q-0.421875 0.375 -1.046875 0.578125q-0.625 0.21875 -1.421875 0.21875zm9.020081 0q-0.890625 0 -1.671875 -0.3125q-0.78125 -0.3125 -1.359375 -0.921875q-0.5625 -0.609375 -0.890625 -1.484375q-0.328125 -0.890625 -0.328125 -2.015625q0 -1.140625 0.34375 -2.0156288q0.359375 -0.890625 0.953125 -1.5q0.609375 -0.625 1.390625 -0.9375q0.796875 -0.328125 1.671875 -0.328125q0.90625 0 1.53125 0.328125q0.640625 0.3125 1.125 0.734375l-0.78125 1.015625q-0.390625 -0.359375 -0.828125 -0.578125q-0.4375 -0.21875 -0.984375 -0.21875q-0.609375 0 -1.140625 0.25q-0.515625 0.25 -0.890625 0.71875q-0.375 0.46875 -0.59375 1.109375q-0.21875 0.6406288 -0.21875 1.4218788q0 0.78125 0.203125 1.421875q0.21875 0.625 0.578125 1.09375q0.359375 0.453125 0.875 0.703125q0.53125 0.25 1.15625 0.25q0.625 0 1.15625 -0.265625q0.53125 -0.265625 0.96875 -0.640625l0.671875 1.015625q-0.625 0.546875 -1.375 0.859375q-0.734375 0.296875 -1.5625 0.296875zm8.06839 0q-0.84375 0 -1.609375 -0.3125q-0.75 -0.3125 -1.328125 -0.921875q-0.578125 -0.609375 -0.921875 -1.484375q-0.34375 -0.890625 -0.34375 -2.015625q0 -1.140625 0.34375 -2.0156288q0.34375 -0.890625 0.921875 -1.5q0.578125 -0.625 1.328125 -0.9375q0.765625 -0.328125 1.609375 -0.328125q0.828125 0 1.578125 0.328125q0.765625 0.3125 1.34375 0.9375q0.578125 0.609375 0.921875 1.5q0.34375 0.8750038 0.34375 2.0156288q0 1.125 -0.34375 2.015625q-0.34375 0.875 -0.921875 1.484375q-0.578125 0.609375 -1.34375 0.921875q-0.75 0.3125 -1.578125 0.3125zm0 -1.265625q0.578125 0 1.0625 -0.25q0.484375 -0.25 0.828125 -0.703125q0.34375 -0.46875 0.53125 -1.09375q0.1875 -0.640625 0.1875 -1.421875q0 -0.78125 -0.1875 -1.4218788q-0.1875 -0.640625 -0.53125 -1.109375q-0.34375 -0.46875 -0.828125 -0.71875q-0.484375 -0.25 -1.0625 -0.25q-0.578125 0 -1.078125 0.25q-0.484375 0.25 -0.828125 0.71875q-0.34375 0.46875 -0.53125 1.109375q-0.1875 0.6406288 -0.1875 1.4218788q0 0.78125 0.1875 1.421875q0.1875 0.625 0.53125 1.09375q0.34375 0.453125 0.828125 0.703125q0.5 0.25 1.078125 0.25zm6.5804443 1.046875l0 -9.062504l1.265625 0l0.125 1.640625l0.0625 0q0.46875 -0.859375 1.125 -1.359375q0.671875 -0.515625 1.453125 -0.515625q0.53125 0 0.96875 0.1875l-0.296875 1.34375q-0.234375 -0.0625 -0.421875 -0.09375q-0.171875 -0.046875 -0.453125 -0.046875q-0.578125 0 -1.203125 0.46875q-0.625 0.453125 -1.09375 1.609375l0 5.828129l-1.53125 0zm9.958923 0.21875q-0.90625 0 -1.703125 -0.3125q-0.796875 -0.328125 -1.390625 -0.9375q-0.578125 -0.609375 -0.921875 -1.484375q-0.328125 -0.875 -0.328125 -2.0q0 -1.125 0.34375 -2.0000038q0.34375 -0.890625 0.90625 -1.5q0.578125 -0.625 1.296875 -0.953125q0.734375 -0.328125 1.515625 -0.328125q0.859375 0 1.53125 0.3125q0.6875 0.296875 1.140625 0.859375q0.46875 0.546875 0.703125 1.34375q0.25 0.78125 0.25 1.7500038q0 0.234375 -0.015625 0.46875q0 0.234375 -0.046875 0.40625l-6.109375 0q0.09375 1.453125 0.890625 2.3125q0.8125 0.84375 2.125 0.84375q0.65625 0 1.203125 -0.203125q0.546875 -0.203125 1.0625 -0.515625l0.53125 1.015625q-0.59375 0.375 -1.328125 0.65625q-0.71875 0.265625 -1.65625 0.265625zm-2.859375 -5.484375l4.859375 0q0 -1.3750038 -0.59375 -2.0937538q-0.578125 -0.71875 -1.640625 -0.71875q-0.484375 0 -0.9375 0.1875q-0.4375 0.1875 -0.796875 0.546875q-0.34375 0.359375 -0.578125 0.890625q-0.234375 0.515625 -0.3125 1.1875038zm8.4410095 5.265625l0 -9.062504l1.265625 0l0.125 1.640625l0.0625 0q0.46875 -0.859375 1.125 -1.359375q0.671875 -0.515625 1.453125 -0.515625q0.53125 0 0.9687805 0.1875l-0.29690552 1.34375q-0.234375 -0.0625 -0.421875 -0.09375q-0.171875 -0.046875 -0.453125 -0.046875q-0.578125 0 -1.203125 0.46875q-0.625 0.453125 -1.09375 1.609375l0 5.828129l-1.53125 0z" fill-rule="nonzero"/></g></svg>